<svg xmlns="http://www.w3.org/2000/svg" xmlns:xlink="http://www.w3.org/1999/xlink"><symbol id="icon-check-mark" viewBox="0 0 12 8">
<path d="M9.89355 0.545747L4.54988 5.88946L2.10674 3.44632C1.81862 3.15826 1.35157 3.15826 1.06345 3.44632C0.775398 3.73444 0.775398 4.20149 1.06345 4.4896L4.02824 7.45438C4.1723 7.59838 4.36109 7.67044 4.54988 7.67044C4.73868 7.67044 4.92747 7.59838 5.07153 7.45438L10.9368 1.58909C11.2249 1.30097 11.2249 0.833922 10.9368 0.545806C10.6487 0.25769 10.1816 0.25769 9.89355 0.545747Z"/>
</symbol><symbol id="icon-email" viewBox="0 0 16 12">
<path d="M14.4 0H1.6C0.72 0 0.00799999 0.675 0.00799999 1.5L0 10.5C0 11.325 0.72 12 1.6 12H14.4C15.28 12 16 11.325 16 10.5V1.5C16 0.675 15.28 0 14.4 0ZM14.4 3L8 6.75L1.6 3V1.5L8 5.25L14.4 1.5V3Z"/>
</symbol><symbol id="icon-phone" viewBox="0 0 12 13">
<path d="M11.34 8.94111C10.52 8.94111 9.72667 8.79667 8.98667 8.53667C8.75333 8.45 8.49333 8.515 8.31333 8.71L7.26667 10.1328C5.38 9.15778 3.61333 7.31611 2.67333 5.2L3.97333 4.00111C4.15333 3.79889 4.20667 3.51722 4.13333 3.26444C3.88667 2.46278 3.76 1.60333 3.76 0.715C3.76 0.325 3.46 0 3.1 0H0.793333C0.433333 0 0 0.173333 0 0.715C0 7.42444 5.15333 13 11.34 13C11.8133 13 12 12.545 12 12.1478V9.65611C12 9.26611 11.7 8.94111 11.34 8.94111Z"/>
</symbol><symbol id="icon-social--fb" viewBox="0 0 16 16">
<path d="M8 0C3.58171 0 0 3.58171 0 8C0 12.4183 3.58171 16 8 16C12.4183 16 16 12.4183 16 8C16 3.58171 12.4183 0 8 0ZM11.052 4.07407L9.94553 4.07456C9.07785 4.07456 8.91008 4.48687 8.91008 5.09185V6.42586H10.9792L10.9782 8.51527H8.91024V13.8772H6.75208V8.51527H4.94797V6.42586H6.75208V4.88495C6.75208 3.09672 7.84467 2.1228 9.43975 2.1228L11.0522 2.12526V4.07407H11.052Z"/>
</symbol><symbol id="icon-social--ig" viewBox="0 0 16 16">
<path d="M8.01123 10.2687C9.31886 10.2687 10.3789 9.24153 10.3789 7.9744C10.3789 6.70727 9.31886 5.68005 8.01123 5.68005C6.7036 5.68005 5.64355 6.70727 5.64355 7.9744C5.64355 9.24153 6.7036 10.2687 8.01123 10.2687Z"/>
<path d="M11.6766 8.1025C11.6766 10.0636 10.0358 11.6531 8.01191 11.6531C5.98797 11.6531 4.34721 10.0636 4.34721 8.1025C4.34721 7.75108 4.40024 7.4116 4.49845 7.09094H3.41553V12.0713C3.41553 12.3293 3.62635 12.5399 3.88415 12.5399H12.0943C12.3523 12.5399 12.5633 12.3293 12.5633 12.0713V7.09094H11.5254C11.6234 7.4116 11.6766 7.75108 11.6766 8.1025Z"/>
<path d="M10.6944 5.74691H12.0269C12.319 5.74691 12.5576 5.50826 12.5576 5.21625V3.94574C12.5576 3.65357 12.319 3.41492 12.0269 3.41492H10.6944C10.4022 3.41492 10.1636 3.65357 10.1636 3.94574V5.21625C10.1634 5.50809 10.4022 5.74691 10.6944 5.74691Z"/>
<path d="M8 0C3.58171 0 0 3.58171 0 8C0 12.4183 3.58171 16 8 16C12.4183 16 16 12.4183 16 8C16 3.58171 12.4183 0 8 0ZM12.3818 13.8952H3.61837C2.78572 13.8952 2.10496 13.2789 2.10496 12.3821V3.61821C2.10496 2.72106 2.78572 2.10496 3.61837 2.10496H12.3818C13.2143 2.10496 13.8952 2.72106 13.8952 3.61821V12.3821C13.8952 13.2789 13.2141 13.8952 12.3818 13.8952Z"/>
</symbol><symbol id="icon-social--tw" viewBox="0 0 16 16">
<path d="M8 0C3.58171 0 0 3.58171 0 8C0 12.4183 3.58171 16 8 16C12.4183 16 16 12.4183 16 8C16 3.58171 12.4183 0 8 0ZM12.8376 5.86656C12.8414 5.961 12.8434 6.05561 12.8434 6.15071C12.8434 9.56808 10.2429 13.1028 5.89127 13.1028C4.56102 13.1028 3.2658 12.7232 2.14572 12.0048C2.12231 11.9899 2.11265 11.961 2.12198 11.9349C2.13131 11.9091 2.15767 11.893 2.18468 11.8961C2.37258 11.9186 2.56475 11.9297 2.75544 11.9297C3.7904 11.9297 4.77021 11.6097 5.59894 11.0026C4.60555 10.9188 3.75178 10.2465 3.44471 9.28753C3.43832 9.26756 3.44291 9.24579 3.45665 9.23008C3.47057 9.21436 3.49185 9.20749 3.51214 9.21125C3.78746 9.26347 4.06736 9.26691 4.3371 9.22304C3.31261 8.90468 2.59257 7.945 2.59257 6.85242L2.5929 6.82066C2.59339 6.79988 2.60469 6.78089 2.62269 6.77058C2.64053 6.7601 2.66279 6.75994 2.6808 6.77009C2.94793 6.91838 3.24354 7.01365 3.54684 7.05015C2.95808 6.58087 2.61238 5.8695 2.61238 5.10854C2.61238 4.66954 2.72859 4.23808 2.94858 3.86079C2.9584 3.84393 2.97575 3.83313 2.99507 3.83165C3.01455 3.82969 3.03337 3.8382 3.04565 3.85326C4.25068 5.33131 6.0232 6.24139 7.91865 6.35842C7.88706 6.19933 7.87102 6.03531 7.87102 5.86983C7.87102 4.50128 8.98439 3.38807 10.3528 3.38807C11.0255 3.38807 11.6757 3.66453 12.1417 4.14772C12.6669 4.04068 13.1673 3.84753 13.6295 3.57352C13.6507 3.56092 13.6772 3.56289 13.6967 3.57811C13.7156 3.59349 13.7235 3.61903 13.716 3.6426C13.5593 4.1325 13.2539 4.55988 12.8435 4.86842C13.23 4.80115 13.605 4.68755 13.9617 4.52927C13.9856 4.5183 14.0139 4.52518 14.0311 4.54531C14.0481 4.56561 14.0496 4.59458 14.0348 4.61651C13.7099 5.10281 13.3073 5.52331 12.8376 5.86656Z"/>
</symbol><symbol id="icon-social--vk" viewBox="0 0 16 16">
<path d="M8 0C3.58187 0 0 3.58171 0 8C0 12.4183 3.58187 16 8 16C12.4181 16 16 12.4183 16 8C16 3.58171 12.4181 0 8 0ZM12.058 8.86523C12.4309 9.22942 12.8254 9.57217 13.1601 9.97402C13.3084 10.1518 13.4482 10.3356 13.5546 10.5423C13.7065 10.8371 13.5693 11.1604 13.3055 11.1779L11.6665 11.1776C11.2432 11.2126 10.9064 11.0419 10.6224 10.7525C10.3957 10.5219 10.1853 10.2755 9.96698 10.037C9.87777 9.93915 9.78382 9.847 9.67186 9.77449C9.44843 9.62914 9.2543 9.67366 9.1263 9.90707C8.99585 10.1446 8.96606 10.4078 8.95362 10.6721C8.93577 11.0586 8.81923 11.1596 8.43147 11.1777C7.60291 11.2165 6.81674 11.0908 6.08606 10.6731C5.44147 10.3047 4.94257 9.78463 4.50783 9.19587C3.66126 8.04812 3.01291 6.78842 2.43036 5.49254C2.29925 5.2007 2.39517 5.04454 2.71714 5.03849C3.25205 5.02817 3.78697 5.02948 4.32188 5.03799C4.53958 5.04143 4.68362 5.166 4.76726 5.37142C5.05633 6.08262 5.4107 6.75928 5.85477 7.38684C5.97311 7.55396 6.09391 7.72059 6.26594 7.83861C6.45582 7.9689 6.60051 7.92585 6.69005 7.71388C6.74734 7.57917 6.77205 7.43513 6.78449 7.29076C6.82705 6.79628 6.83212 6.30195 6.75847 5.80943C6.71263 5.50122 6.53929 5.30218 6.23206 5.24391C6.07558 5.21428 6.0985 5.15634 6.17461 5.06697C6.3067 4.91245 6.43045 4.81686 6.67777 4.81686L8.52951 4.81653C8.82136 4.87382 8.88683 5.00477 8.92645 5.29874L8.92808 7.35656C8.92464 7.47032 8.98521 7.80751 9.18948 7.88198C9.35317 7.936 9.4612 7.80473 9.55908 7.70112C10.0032 7.22987 10.3195 6.67368 10.6029 6.09801C10.7279 5.84413 10.8358 5.58142 10.9406 5.31822C11.0185 5.1236 11.1396 5.02785 11.3593 5.03112L13.1424 5.03325C13.195 5.03325 13.2483 5.03374 13.3004 5.04274C13.6009 5.09414 13.6832 5.22345 13.5903 5.5166C13.4439 5.97721 13.1596 6.36088 12.8817 6.74553C12.5838 7.15736 12.2661 7.55478 11.9711 7.96841C11.7001 8.34652 11.7215 8.53688 12.058 8.86523Z"/>
</symbol><symbol id="icon-telegram" viewBox="0 0 12 12">
<path d="M12 0L0 5.02V5.67333L4.56 7.44L6.32 12H6.97333L12 0Z"/>
</symbol></svg>